<?xml version="1.0" encoding="utf-8"?>
<!-- Generator: Adobe Illustrator 24.1.0, SVG Export Plug-In . SVG Version: 6.00 Build 0)  -->
<svg version="1.1" id="add" xmlns="http://www.w3.org/2000/svg" xmlns:xlink="http://www.w3.org/1999/xlink" x="0px" y="0px"
	 viewBox="0 0 32 32" style="enable-background:new 0 0 32 32;" xml:space="preserve">
<path d="M27.7,15H17V4.3C17,4.1,16.9,4,16.7,4h-1.4C15.1,4,15,4.1,15,4.3V15H4.3C4.1,15,4,15.1,4,15.3v1.4C4,16.9,4.1,17,4.3,17H15
	v10.7c0,0.2,0.1,0.3,0.3,0.3h1.4c0.2,0,0.3-0.1,0.3-0.3V17h10.7c0.2,0,0.3-0.1,0.3-0.3v-1.4C28,15.1,27.9,15,27.7,15z"/>
</svg>
