<?xml version="1.0" encoding="utf-8"?>
<!-- Generator: Adobe Illustrator 24.1.0, SVG Export Plug-In . SVG Version: 6.00 Build 0)  -->
<svg version="1.1" id="attachment" xmlns="http://www.w3.org/2000/svg" xmlns:xlink="http://www.w3.org/1999/xlink" x="0px" y="0px"
	 viewBox="0 0 32 32" style="enable-background:new 0 0 32 32;" xml:space="preserve">
<path d="M25.8,15.2L13.5,27.5l0,0c-1.5,1.5-3.8,2-5.7,1c-3.3-1.7-3.7-5.8-1.4-8.1c0,0,0,0,0,0L18.9,7.9l0,0c0.8-0.8,2-1.1,3-0.8
	c2.3,0.9,2.7,3.5,1.2,5l-8.7,8.7l-1.4-1.4l8.7-8.7c0.4-0.4,0.4-1,0-1.4c-0.4-0.4-1-0.4-1.4,0c0,0,0,0,0,0L7.8,21.8c0,0,0,0,0,0
	c-1.5,1.5-1.1,4.2,1.2,5c1.1,0.4,2.3,0,3.1-0.8l0,0l12.5-12.5c1.9-1.9,2-5.1,0-7.1s-5.1-1.9-7.1,0l-12,12c-0.1,0.1-0.3,0.1-0.4,0
	l-1-1c-0.1-0.1-0.1-0.3,0-0.4l12-12c2.9-2.9,7.8-2.7,10.5,0.6C28.8,8.5,28.4,12.6,25.8,15.2z"/>
</svg>
