<?xml version="1.0" encoding="utf-8"?>
<!-- Generator: Adobe Illustrator 24.2.3, SVG Export Plug-In . SVG Version: 6.00 Build 0)  -->
<svg version="1.1" id="discount" xmlns="http://www.w3.org/2000/svg" xmlns:xlink="http://www.w3.org/1999/xlink" x="0px" y="0px"
     viewBox="0 0 32 32" style="enable-background:new 0 0 32 32;" xml:space="preserve">
<path d="M11.5,9C10.67,9,10,9.67,10,10.5s0.67,1.5,1.5,1.5c0.83,0,1.5-0.67,1.5-1.5S12.33,9,11.5,9z M11.5,9
    C10.67,9,10,9.67,10,10.5s0.67,1.5,1.5,1.5c0.83,0,1.5-0.67,1.5-1.5S12.33,9,11.5,9z M28.6,18.94c0.22-0.98,1.4-1.89,1.4-2.93
    c0-1.06-1.18-1.97-1.4-2.95c-0.23-1.02,0.44-2.36,0.01-3.28c-0.43-0.93-1.88-1.22-2.5-2.02c-0.63-0.8-0.59-2.32-1.37-2.96
    c-0.8-0.64-2.22-0.27-3.13-0.72c-0.9-0.44-1.5-1.82-2.5-2.05C19.02,2.01,18.92,2,18.81,2C17.92,2,16.93,2.79,16,2.79
    S14.08,2,13.19,2c-0.11,0-0.21,0.01-0.3,0.03c-1,0.23-1.6,1.61-2.5,2.05C9.48,4.53,8.06,4.16,7.28,4.8
    c-0.8,0.64-0.76,2.16-1.39,2.96c-0.62,0.8-2.06,1.09-2.5,2.02c-0.43,0.92,0.24,2.26,0.01,3.28C3.18,14.04,2,14.95,2,16.01
    c0,1.04,1.18,1.95,1.4,2.93c0.23,1.02-0.44,2.36-0.01,3.28c0.43,0.93,1.88,1.22,2.5,2.02c0.54,0.69,0.59,1.88,1.08,2.62
    C7.05,27,7.14,27.11,7.26,27.2c0.8,0.64,2.22,0.27,3.13,0.72c0.9,0.44,1.5,1.82,2.5,2.05c0.09,0.02,0.19,0.03,0.3,0.03h0.06
    c0.42-0.01,0.87-0.19,1.31-0.37c0.43-0.18,0.87-0.36,1.29-0.39c0.06-0.01,0.1-0.01,0.15-0.01s0.09,0,0.15,0.01
    c0.89,0.07,1.82,0.76,2.66,0.76c0.11,0,0.21-0.01,0.3-0.03c1-0.23,1.6-1.61,2.5-2.05c0.91-0.45,2.33-0.08,3.11-0.72
    c0.12-0.09,0.23-0.22,0.31-0.35c0.37-0.54,0.49-1.33,0.74-1.97c0.1-0.24,0.2-0.46,0.34-0.64c0.17-0.22,0.4-0.4,0.66-0.56
    c0.67-0.44,1.52-0.79,1.84-1.46C29.04,21.3,28.37,19.96,28.6,18.94z M8,10.5C8,8.57,9.57,7,11.5,7S15,8.57,15,10.5S13.43,14,11.5,14
    S8,12.43,8,10.5z M13,25h-2l8-18h2L13,25z M20.5,25c-1.93,0-3.5-1.57-3.5-3.5s1.57-3.5,3.5-3.5s3.5,1.57,3.5,3.5S22.43,25,20.5,25z
     M20.5,20c-0.83,0-1.5,0.67-1.5,1.5c0,0.83,0.67,1.5,1.5,1.5s1.5-0.67,1.5-1.5C22,20.67,21.33,20,20.5,20z M13,10.5
    C13,9.67,12.33,9,11.5,9C10.67,9,10,9.67,10,10.5s0.67,1.5,1.5,1.5C12.33,12,13,11.33,13,10.5z"/>
</svg>
