<?xml version="1.0" encoding="utf-8"?>
<!-- Generator: Adobe Illustrator 24.1.2, SVG Export Plug-In . SVG Version: 6.00 Build 0)  -->
<svg version="1.1" id="facts-soft" xmlns="http://www.w3.org/2000/svg" xmlns:xlink="http://www.w3.org/1999/xlink" x="0px" y="0px"
	 viewBox="0 0 32 32" style="enable-background:new 0 0 32 32;" xml:space="preserve">
<path d="M16,4.704l3.529,3.529L16,11.762l-3.529-3.529L16,4.704 M16,2c-0.077,0-0.154,0.029-0.212,0.088L9.643,8.233L16,14.59
	l6.357-6.357l-6.145-6.145C16.154,2.029,16.077,2,16,2L16,2z"/>
<path d="M23.767,12.471L27.296,16l-3.529,3.529L20.238,16L23.767,12.471 M23.767,9.642L17.41,16l6.357,6.357l6.145-6.145
	c0.117-0.117,0.117-0.307,0-0.424L23.767,9.642L23.767,9.642z"/>
<path d="M8.233,12.472L11.762,16l-3.529,3.529L4.704,16L8.233,12.472 M8.233,9.643l-6.145,6.145c-0.117,0.117-0.117,0.307,0,0.424
	l6.145,6.145L14.59,16L8.233,9.643L8.233,9.643z"/>
<path d="M16,20.238l3.529,3.529L16,27.296l-3.529-3.529L16,20.238 M16,17.41l-6.357,6.357l6.145,6.145
	C15.846,29.971,15.923,30,16,30c0.077,0,0.154-0.029,0.212-0.088l6.145-6.145L16,17.41L16,17.41z"/>
</svg>
