<?xml version="1.0" encoding="utf-8"?>
<!-- Generator: Adobe Illustrator 24.1.2, SVG Export Plug-In . SVG Version: 6.00 Build 0)  -->
<svg version="1.1" id="favorite" xmlns="http://www.w3.org/2000/svg" xmlns:xlink="http://www.w3.org/1999/xlink" x="0px" y="0px"
	 viewBox="0 0 32 32" style="enable-background:new 0 0 32 32;" xml:space="preserve">
<g>
	<path d="M22.1,6c1.509,0,2.934,0.579,4.008,1.628c1.059,1.038,1.642,2.416,1.642,3.882c0,1.465-0.583,2.844-1.64,3.879
		l-1.529,1.494L16,25.313l-8.585-8.434l-1.523-1.488C4.833,14.354,4.25,12.975,4.25,11.51c0-1.465,0.583-2.844,1.64-3.879
		C6.967,6.579,8.391,6,9.9,6c1.488,0,2.944,0.593,3.996,1.627l0.702,0.69L16,9.694l1.402-1.377l0.703-0.691
		C19.156,6.593,20.612,6,22.1,6 M22.1,4c-1.946,0-3.913,0.74-5.398,2.2L16,6.89L15.298,6.2C13.813,4.74,11.846,4,9.9,4
		C7.934,4,5.987,4.74,4.492,6.2c-2.99,2.93-2.99,7.69,0,10.62l1.525,1.49l9.772,9.6c0.06,0.06,0.138,0.09,0.214,0.09
		c0.076,0,0.152-0.03,0.207-0.09l9.772-9.6l1.525-1.49c2.99-2.93,2.99-7.69,0-10.62C26.013,4.74,24.066,4,22.1,4L22.1,4z"/>
</g>
</svg>
