<?xml version="1.0" encoding="utf-8"?>
<!-- Generator: Adobe Illustrator 24.2.3, SVG Export Plug-In . SVG Version: 6.00 Build 0)  -->
<svg version="1.1" id="package" xmlns="http://www.w3.org/2000/svg" xmlns:xlink="http://www.w3.org/1999/xlink" x="0px" y="0px"
     viewBox="0 0 32 32" style="enable-background:new 0 0 32 32;" xml:space="preserve">
<style type="text/css">
    .st0{fill-rule:evenodd;clip-rule:evenodd;}
</style>
<path class="st0" d="M15.887,2.028L2.173,8.436C2.068,8.485,2,8.592,2,8.708v15.997c0,0.126,0.079,0.239,0.197,0.282l13.686,4.994
    c0.075,0.027,0.157,0.024,0.229-0.01l13.714-6.398C29.932,23.525,30,23.418,30,23.301V7.295c0-0.126-0.079-0.239-0.197-0.282
    L16.117,2.018C16.042,1.991,15.959,1.994,15.887,2.028z M16.09,4.184l9.16,3.34l-9.32,4.35h-0.01l-9.15-3.34L16.09,4.184z
     M23,16.284l-2,0.93v-5.51l2-0.93V16.284z M4,23.524v-13.7l0.21-0.09L15,13.664v13.608L4,23.524z M28,22.234l-11,5.038V13.574
    l2-0.94v7.71l6-2.8v-7.71l2.9-1.35l0.1,0.04V22.234z"/>
</svg>
