<?xml version="1.0" encoding="utf-8"?>
<!-- Generator: Adobe Illustrator 24.1.2, SVG Export Plug-In . SVG Version: 6.00 Build 0)  -->
<svg version="1.1" id="star" xmlns="http://www.w3.org/2000/svg" xmlns:xlink="http://www.w3.org/1999/xlink" x="0px" y="0px"
	 viewBox="0 0 32 32" style="enable-background:new 0 0 32 32;" xml:space="preserve">
<g>
	<path d="M16,6.831l2.653,5.343l0.467,0.94l1.039,0.15l5.907,0.853l-4.266,4.133l-0.759,0.735l0.18,1.041l1.01,5.851l-5.303-2.771
		L16,22.622l-0.926,0.484L9.77,25.877l1.01-5.851l0.18-1.041l-0.759-0.735l-4.266-4.133l5.907-0.853l1.039-0.15l0.467-0.94L16,6.831
		 M16,2.75c-0.119,0-0.237,0.061-0.298,0.184l-4.146,8.35l-9.271,1.339c-0.273,0.039-0.382,0.373-0.184,0.564l6.708,6.499
		l-1.584,9.177c-0.037,0.214,0.134,0.387,0.328,0.387c0.051,0,0.104-0.012,0.155-0.039L16,24.878l8.292,4.333
		c0.051,0.027,0.104,0.039,0.155,0.039c0.194,0,0.365-0.174,0.328-0.387l-1.584-9.177l6.708-6.499
		c0.197-0.191,0.088-0.524-0.184-0.564l-9.271-1.339l-4.146-8.35C16.237,2.811,16.119,2.75,16,2.75L16,2.75z"/>
</g>
</svg>
