<?xml version="1.0" encoding="utf-8"?>
<!-- Generator: Adobe Illustrator 24.1.2, SVG Export Plug-In . SVG Version: 6.00 Build 0)  -->
<svg version="1.1" id="zoom-out" xmlns="http://www.w3.org/2000/svg" xmlns:xlink="http://www.w3.org/1999/xlink" x="0px" y="0px"
	 viewBox="0 0 32 32" style="enable-background:new 0 0 32 32;" xml:space="preserve">
<path d="M11.986,4c4.411,0,7.999,3.588,7.999,7.999c0,1.866-0.624,3.616-1.806,5.06l-0.51,0.623l-0.623,0.51
	c-1.444,1.181-3.193,1.806-5.06,1.806c-4.41,0-7.999-3.588-7.999-7.999S7.576,4,11.986,4 M11.986,2
	c-5.522,0-9.999,4.477-9.999,9.999c0,5.522,4.477,9.999,9.999,9.999c2.401,0,4.603-0.848,6.327-2.258l8.173,8.173
	C26.544,27.971,26.621,28,26.698,28s0.154-0.029,0.212-0.088l0.99-0.99c0.117-0.117,0.117-0.307,0-0.424l-8.173-8.173
	c1.41-1.724,2.258-3.926,2.258-6.326C21.985,6.477,17.508,2,11.986,2L11.986,2z"/>
<rect x="6.987" y="10.999" width="9.999" height="2"/>
</svg>
